<?xml version="1.0" standalone="no"?>
<!DOCTYPE svg PUBLIC "-//W3C//DTD SVG 20010904//EN"
 "http://www.w3.org/TR/2001/REC-SVG-20010904/DTD/svg10.dtd">
<svg version="1.0" xmlns="http://www.w3.org/2000/svg"
 width="320.000000pt" height="320.000000pt" viewBox="0 0 320.000000 320.000000"
 preserveAspectRatio="xMidYMid meet">
<metadata>
Created by potrace 1.14, written by Peter Selinger 2001-2017
</metadata>
<g transform="translate(0.000000,320.000000) scale(0.100000,-0.100000)"
fill="#000000" stroke="none">
<path d="M1455 2914 c-39 -44 -49 -62 -47 -85 3 -28 2 -29 -41 -29 -41 0 -48
4 -100 58 l-55 58 -84 -29 c-45 -16 -87 -32 -91 -36 -4 -4 1 -32 12 -62 16
-43 29 -59 62 -79 36 -22 79 -81 79 -109 0 -5 -20 -13 -44 -16 -30 -5 -53 -16
-72 -36 -23 -24 -36 -29 -76 -29 -30 0 -47 -4 -43 -10 3 -5 23 -10 43 -10 25
-1 46 -9 66 -26 l29 -25 -29 -30 c-35 -37 -86 -40 -121 -7 -23 21 -26 21 -66
8 -40 -14 -42 -17 -45 -61 -2 -37 -7 -48 -23 -52 -14 -4 -19 -14 -19 -42 0
-31 -9 -48 -55 -101 l-56 -63 11 -67 c9 -53 8 -69 -2 -75 -24 -15 -33 -9 -60
41 l-28 50 -53 0 c-29 0 -58 -5 -65 -12 -6 -6 -35 -11 -64 -10 -80 3 -89 -9
-86 -105 3 -80 3 -80 40 -107 43 -31 64 -33 80 -6 10 15 24 20 55 20 24 0 43
-2 43 -5 0 -3 -7 -22 -15 -41 -8 -20 -13 -40 -10 -44 3 -4 30 -11 61 -15 l55
-7 -2 -56 -3 -57 55 -19 55 -19 62 28 c55 24 70 27 137 23 l75 -5 63 -60 c50
-49 72 -62 116 -73 47 -11 56 -18 80 -57 65 -110 55 -102 201 -147 l135 -42 3
-63 c3 -59 0 -67 -37 -125 -23 -35 -45 -84 -52 -116 -16 -75 -17 -77 -101
-135 -68 -47 -73 -53 -76 -90 -3 -39 -35 -77 -276 -332 l-39 -42 49 -22 c79
-34 259 -76 385 -89 306 -33 663 68 929 263 64 47 185 162 242 229 l40 48 -52
91 c-43 77 -51 97 -45 123 4 17 9 83 12 148 4 101 2 120 -14 144 -10 16 -20
54 -23 89 l-5 60 -40 3 c-35 3 -43 8 -63 42 -20 35 -27 40 -58 40 -23 0 -51
-11 -79 -30 -37 -26 -53 -30 -107 -30 l-64 0 -39 80 c-21 44 -56 96 -77 117
l-38 37 0 111 0 110 39 58 c21 33 53 67 70 78 25 15 31 25 31 53 0 45 35 71
110 81 42 6 64 16 100 46 l46 39 93 0 92 0 -6 -43 -7 -42 89 -29 c48 -16 93
-31 99 -33 7 -3 19 18 29 47 12 35 21 50 31 46 10 -4 11 0 3 17 -14 29 -74 73
-180 130 -76 42 -93 47 -148 47 l-61 0 0 -30 c0 -27 -3 -30 -32 -30 -29 0 -37
-7 -72 -60 -33 -53 -42 -60 -70 -60 -44 0 -106 63 -105 105 3 75 7 80 94 85
l80 5 3 37 c3 31 -2 40 -32 65 -20 15 -36 30 -36 33 0 3 28 4 63 3 l62 -4 52
50 53 49 -43 32 -42 31 -10 -63 -10 -63 -78 -3 c-84 -3 -84 -3 -66 58 10 33 8
48 -15 118 -27 80 -27 80 -79 102 -158 68 -339 109 -517 115 l-115 5 -50 -56z"/>
<path d="M214 1721 c-2 -2 -4 -56 -4 -120 0 -308 95 -594 276 -837 99 -133
336 -343 353 -315 5 7 11 54 14 104 4 51 12 146 19 211 9 94 9 121 0 124 -7 2
-37 24 -66 48 -43 35 -58 54 -72 96 -9 29 -30 79 -45 110 -23 45 -29 71 -29
121 0 58 3 67 36 105 32 38 35 46 32 94 l-3 53 -40 6 c-22 3 -64 17 -92 32
-48 25 -53 30 -53 61 0 30 -7 38 -56 72 l-56 39 -105 0 c-58 0 -107 -2 -109
-4z"/>
</g>
</svg>
